<?xml version='1.0' encoding='utf-8'?>
<svg xmlns="http://www.w3.org/2000/svg" version="1.1" width="1080px" height="2132px" viewBox="0 0 1080 2132"> <g id="layer1"> <g style="fill:rgb(0,178,230); fill-opacity:1.0; stroke-linejoin: miter"> <path d="M-104.001,580.2288C-104.20528,580.2288,-104.401184,580.30994,-104.54563,580.4544C-104.69008,580.5989,-104.77123,580.79474,-104.77123,580.999L-104.77023,1498.0C-104.77023,1498.4254,-104.425385,1498.7703,-104.0,1498.7703L1179.001,1498.7712C1179.2052,1498.7712,1179.4012,1498.6901,1179.5457,1498.5457C1179.6901,1498.4012,1179.7712,1498.2052,1179.7712,1498.001L1179.7703,581.0C1179.7703,580.5746,1179.4254,580.2298,1179.0,580.2298L-104.001,580.2288 Z"/> </g> <g style="fill:rgb(0,0,0); fill-opacity:0.2; stroke-linejoin: miter"> <path d="M1039.265,1311.6987L1034.9171,1315.1609Q1004.0049,1325.624,854.01874,1331.8972Q702.9948,1338.1654,498.33682,1336.9807Q303.0174,1335.3247,185.91267,1327.29Q148.39102,1324.6929,124.099915,1321.6302L103.68391,1318.4816Q86.85926,1315.2317,86.6701,1311.6987Q91.77759,1300.8566,226.17438,1293.657Q360.57123,1286.4574,562.9675,1286.1838Q765.364,1286.4574,899.76074,1293.657Q1034.1576,1300.8566,1039.265,1311.6987"/> </g> <g style="fill:rgb(0,0,0); fill-opacity:1.0; stroke-linejoin: miter"> <path d="M358.83032,1295.3768L358.83032,1295.3782L358.83032,1295.3801L358.83032,1295.3815L361.72565,1295.4108C370.43335,1295.5074,366.3559,1291.9858,370.26727,1292.3125C376.25085,1292.8124,401.505,1294.8566,403.56165,1295.0682C414.74408,1296.2206,412.98468,1307.5337,412.59332,1311.6467L325.92273,1312.7712L331.13354,1294.3513L358.83032,1295.3768L358.83032,1295.3782L358.83032,1295.3768L358.83032,1295.3782 Z"/> </g> <g style="fill:rgb(0,0,0); fill-opacity:1.0; stroke-linejoin: miter"> <path d="M367.00714,1100.366L372.82843,1097.803Q405.30957,1083.2555,419.0899,1080.6174Q423.07245,1079.8203,426.23755,1079.808Q426.99847,1079.6577,430.48273,1080.305L432.7874,1081.1885Q434.84222,1082.2903,435.90674,1084.0837Q440.12933,1092.1582,428.7798,1104.0833Q419.3449,1113.7335,388.75977,1126.9259L371.8224,1134.0898L367.00714,1100.366 Z"/> </g> <g style="fill:rgb(0,0,0); fill-opacity:1.0; stroke-linejoin: miter"> <path d="M337.4757,1127.5969L337.4757,1127.5984L337.4757,1127.5992C337.4757,1129.889,336.6101,1132.0951,335.052,1133.7745L335.052,1133.7759L190.06328,1290.0559L183.43361,1274.8L322.19086,1275.216L315.5067,1290.4718L175.91864,1140.0078C172.50783,1136.3307,172.72327,1130.5854,176.39973,1127.1746C180.07616,1123.7642,185.8217,1123.9791,189.23248,1127.6561L189.23248,1127.6575L328.82068,1278.1206C331.27972,1280.7712,331.9319,1284.6283,330.48077,1287.9403C329.02966,1291.2522,325.75226,1293.3876,322.1366,1293.3766L322.1366,1293.378L183.37926,1292.9608C179.77325,1292.9497,176.51553,1290.8065,175.07845,1287.4995C173.64127,1284.1925,174.2972,1280.3481,176.74945,1277.7042L176.74945,1277.7062L321.7384,1121.423L319.31488,1127.5986L319.31488,1127.5972C319.31488,1122.5818,323.38043,1118.5166,328.39514,1118.5166C333.41028,1118.5166,337.4757,1122.5815,337.4757,1127.5969 Z"/> </g> <g style="fill:rgb(0,0,0); fill-opacity:1.0; stroke-linejoin: miter"> <path d="M201.69055,1138.2179L197.81898,1133.8192Q184.71745,1118.4684,184.74603,1112.4474Q184.017,1108.3596,185.80157,1104.5201L188.39438,1100.7609Q191.70546,1097.0726,198.60776,1093.7391L206.58757,1090.5126Q217.74202,1086.6897,234.00894,1083.7056Q290.93036,1074.2622,336.81635,1078.5662Q361.59167,1081.4331,370.9532,1085.4756L380.08466,1089.6195L387.30524,1094.526L392.6776,1100.0331Q397.12634,1105.8403,398.1325,1112.2002L398.34113,1118.5353Q397.72076,1124.9268,394.03784,1130.8969Q390.35516,1136.8665,383.86298,1141.7649L376.7317,1146.2327L368.32245,1149.8392Q362.91382,1151.7025,356.67828,1152.8691Q336.75238,1156.9031,300.3639,1153.6649Q265.2428,1150.3962,201.69055,1138.2179 Z"/> </g> <g style="fill:rgb(254,186,155); fill-opacity:1.0; stroke-linejoin: miter"> <path d="M314.9121,1035.2557L346.19598,1024.3097L360.43066,1031.7776L316.5974,1047.3224L294.3382,1042.3516L314.9121,1035.2557 Z"/> </g> <g style="fill:rgb(0,0,0); fill-opacity:0.99607843; stroke-linejoin: miter"> <path d="M213.20197,1045.8575L213.20197,1045.8593L213.20197,1045.8595L211.86743,1054.968C208.79504,1073.6077,207.06412,1090.3844,208.10083,1105.2202C209.18289,1120.7062,213.7645,1130.219,220.4226,1133.8804C229.10355,1143.4011,259.52142,1141.6995,311.6764,1128.7748L328.8282,1308.9609L375.58423,1300.7047C377.72437,1234.4148,378.12775,1188.911,376.72943,1164.1957C374.94232,1132.6064,370.52985,1113.1763,364.37207,1105.2454C358.549,1097.7454,351.55322,1093.1509,342.77692,1091.0393C333.39984,1088.7825,302.30286,1087.7219,272.3606,1087.407L250.89885,1032.3651L213.20197,1045.8575L213.20197,1045.8595L213.20197,1045.8575 Z"/> </g> <g style="fill:rgb(27,2,2); fill-opacity:1.0; stroke-linejoin: miter"> <path d="M127.97049,964.48517L139.90111,961.3405L151.83209,958.1965Q174.95038,1045.8937,198.06883,1133.591Q186.13849,1136.7372,174.20769,1139.8826Q151.08893,1052.1841,127.97049,964.48517 Z"/> </g> <g style="fill:rgb(27,2,2); fill-opacity:1.0; stroke-linejoin: miter"> <path d="M169.72148,1124.1067L253.44054,1124.4458L337.15955,1124.7847Q337.07983,1144.5535,336.99957,1164.3218Q253.28038,1163.9834,169.56148,1163.6449Q169.64143,1143.8761,169.72148,1124.1067 Z"/> </g> <g style="fill:rgb(201,73,123); fill-opacity:0.99607843; stroke-linejoin: miter"> <path d="M404.4818,1178.0978L404.4818,1178.098L404.48145,1178.0972L404.4818,1178.0978 Z"/> </g> <g style="fill:rgb(83,150,190); fill-opacity:0.99607843; stroke-linejoin: miter"> <path d="M161.98375,861.631L161.98384,861.63196L161.98413,861.6321L161.98384,861.631L161.98375,861.63196L161.98384,861.631L161.98413,861.6321Q161.98384,861.631,161.98375,861.631 Z"/> </g> <g style="fill:rgb(255,200,166); fill-opacity:0.99607843; stroke-linejoin: miter"> <path d="M245.24135,935.8742L245.24223,935.87524L245.24187,935.8742L245.24135,935.87604 Z"/> </g> <g style="fill:rgb(75,118,222); fill-opacity:1.0; stroke-linejoin: miter"> <path d="M189.6065,992.44385L217.44998,995.9291L316.9577,1060.8938L333.0653,1031.8306C281.8269,990.14343,249.09328,964.75256,234.94075,955.5365C222.87532,947.6801,216.17381,943.8177,215.02347,943.2821C207.62025,939.83685,201.97986,937.7311,197.77061,937.33514C192.20699,936.8114,187.0706,938.7077,182.3214,943.39496L189.6065,992.44385 Z"/> </g> <g style="fill:rgb(0,0,0); fill-opacity:0.99607843; stroke-linejoin: miter"> <path d="M220.4747,964.26575L220.47533,964.267L220.47595,964.26575L220.4747,964.2675 Z"/> </g> <g style="fill:rgb(125,139,150); fill-opacity:0.99607843; stroke-linejoin: miter"> <path d="M189.03912,1015.2759L189.03912,1015.2771L189.03912,1015.27734L189.03912,1015.2759 Z"/> </g> <g style="fill:rgb(0,0,0); fill-opacity:1.0; stroke-linejoin: miter"> <path d="M160.56833,922.77954L160.49072,922.647Q153.39108,907.3057,151.88165,905.0302Q150.36974,902.373,148.87575,900.4016Q143.18298,893.4959,141.59598,890.8584Q138.22,885.3811,136.74533,881.8813Q133.54025,874.27954,133.05,870.7811Q132.59705,868.5188,132.49257,866.34314L132.49638,864.21106Q132.60977,862.1171,133.1309,860.20166Q134.19905,856.3659,136.58098,853.3034Q138.13258,850.76196,143.89256,847.00116Q147.93057,844.6595,153.27284,843.41064Q159.30223,841.9911,169.5693,841.36414Q172.95868,840.4984,174.47131,839.8284Q178.64783,838.9011,178.84048,831.79626Q184.01308,836.10596,185.34984,838.876Q188.00108,843.04926,188.07245,855.49365L181.02728,890.8515L160.56833,922.77954 Z"/> </g> <g style="fill:rgb(255,186,155); fill-opacity:0.99607843; stroke-linejoin: miter"> <path d="M160.40654,930.2116L160.40749,930.21204L158.00296,917.9637L156.22617,913.6172Q161.0224,911.6813,162.97632,908.57495Q164.68309,905.59015,164.51416,901.0902Q164.18866,897.2691,163.51518,895.7235Q163.15381,894.69403,162.69534,893.7171Q159.52986,887.59076,159.58931,887.1754Q158.90143,885.561,159.16057,882.9021Q160.73058,876.9731,164.28828,877.2772Q165.22623,877.20856,167.14996,878.5571Q167.86963,878.9015,172.47818,883.71277Q173.6669,884.8168,173.9079,884.2806Q174.09198,883.1744,173.8119,881.9885Q171.97418,873.3314,171.51193,870.1766Q170.78323,864.3741,170.94402,863.3642Q170.66658,857.4714,175.05019,852.19885Q182.42885,845.3305,188.07144,847.43176Q195.42763,856.2865,196.7506,859.476Q198.4943,862.8858,197.2713,867.22986Q208.50871,875.508,209.3536,878.02057Q211.04956,880.8224,204.89503,883.1699Q207.55286,887.28015,207.60774,888.6134Q207.89009,890.07556,205.90793,891.55994Q207.62117,891.2546,207.9584,893.3745Q208.17361,895.26245,207.69705,899.99927Q209.82712,904.56464,209.87851,906.96857Q209.70908,909.28937,208.82153,909.9717Q207.72562,911.59735,201.52422,913.9915L193.59753,914.1459L191.14641,920.89453L160.40654,930.2116 Z"/> </g> <g style="fill:rgb(0,0,0); fill-opacity:0.99607843; stroke-linejoin: miter"> <path d="M213.55733,907.5998L213.55772,907.59875L213.55772,907.5998L213.55772,907.59875 Z"/> </g> <g style="fill:rgb(75,118,222); fill-opacity:1.0; stroke-linejoin: miter"> <path d="M236.53142,1094.6069L236.53194,1094.6082L235.94801,1098.1573C232.93544,1117.3065,229.09657,1128.5416,225.01167,1132.4933C220.2711,1137.0807,213.43045,1139.982,203.87881,1140.5939C202.61732,1138.5977,201.37444,1136.5853,200.11478,1134.5765C193.20888,1123.5624,188.38185,1113.3506,185.38965,1104.0062C184.82852,1102.2549,183.46162,1098.2416,182.21721,1091.7328C177.72243,1068.2217,175.49928,1056.1,175.30205,1055.3405C174.73936,1053.1761,173.7969,1048.8008,171.96454,1042.335C169.6098,1034.0261,163.42473,1018.8578,154.32454,996.4636C151.3668,989.1847,150.3296,984.70154,149.966,983.431C148.81601,979.4104,148.01752,974.2722,147.54239,967.91974C147.42949,966.4057,147.53056,962.45966,148.59344,956.0805C149.64563,949.7647,152.69672,941.61096,157.42654,931.56384L157.62555,918.854L194.46101,916.45374L197.13252,926.61847C216.11864,941.64404,227.84125,953.93054,233.17033,962.98236C239.02159,972.9214,244.48631,983.3186,248.7097,994.6946C249.11491,994.8408,249.31844,1012.41406,261.61115,1048.686C265.47095,1060.0756,274.51,1068.5986,276.3924,1073.0054C280.54114,1082.7183,284.3249,1089.3643,287.78955,1092.925C280.91998,1099.0586,274.5246,1101.7886,268.61005,1101.9819C263.11957,1102.1621,252.44392,1099.9932,236.53142,1094.6069L236.53194,1094.6082 Z"/> </g> <g style="fill:rgb(0,0,0); fill-opacity:0.99607843; stroke-linejoin: miter"> <path d="M185.7704,867.94965L186.06503,867.6794Q187.9768,865.8574,189.38493,865.2864Q189.69879,865.16376,190.01773,865.085Q190.17471,865.024,190.98494,864.9305Q191.79735,864.856,193.29147,864.97437Q191.0859,865.58203,189.8177,866.0962Q188.57875,866.5737,185.7704,867.94965 Z"/> </g> <g style="fill:rgb(0,0,0); fill-opacity:0.99607843; stroke-linejoin: miter"> <path d="M188.85036,873.699L188.8496,873.70056L188.84972,873.7013L188.85036,873.699 Z"/> </g> <g style="fill:rgb(255,255,255); fill-opacity:0.99607843; stroke-linejoin: miter"> <path d="M188.02415,870.14124L188.0243,870.1425L191.61575,867.1102Q192.30377,867.7253,192.48643,868.2037Q192.69794,868.6505,192.79727,869.8866L188.02415,870.14124 Z"/> </g> <g style="fill:rgb(0,0,0); fill-opacity:0.99607843; stroke-linejoin: miter"> <path d="M191.58133,867.09045L190.97513,868.8583L192.68001,869.851Q192.75197,869.16736,192.7354,868.8226Q192.70985,868.4812,192.68771,868.4241Q192.6603,868.2977,192.61472,868.18164Q192.56868,868.06757,192.50404,867.96356Q192.48102,867.90607,192.27734,867.6722Q192.06583,867.44244,191.58133,867.09045 Z"/> </g> <g style="fill:rgb(0,0,0); fill-opacity:0.99607843; stroke-linejoin: miter"> <path d="M240.4421,968.74347L240.44273,968.745L240.44298,968.74347L240.4421,968.74554 Z"/> </g> <g style="fill:rgb(75,118,222); fill-opacity:1.0; stroke-linejoin: miter"> <path d="M196.5844,925.755L196.58466,925.7558L197.33722,933.2468Q201.89589,933.7764,206.4543,934.30676L196.5844,925.755 Z"/> </g> <g style="fill:rgb(75,118,222); fill-opacity:1.0; stroke-linejoin: miter"> <path d="M202.50398,932.9704L202.5041,932.9708L205.0869,936.014L210.21715,937.0677Q207.53186,934.9964,204.84645,932.92426L202.50398,932.9704 Z"/> </g> <g style="fill:rgb(0,0,0); fill-opacity:0.99607843; stroke-linejoin: miter"> <path d="M412.3047,1118.8441L412.3047,1118.8444L412.30457,1118.8441L412.3047,1118.8448 Z"/> </g> <g style="fill:rgb(0,0,0); fill-opacity:0.99607843; stroke-linejoin: miter"> <path d="M240.38704,903.7027L240.38704,903.7037L240.3875,903.7027L240.38704,903.7037L240.38704,903.7027L240.38704,903.7037L240.3875,903.7027Q240.38704,903.7027,240.38704,903.7027 Z"/> </g> <g style="fill:rgb(0,0,0); fill-opacity:1.0; stroke-linejoin: miter"> <path d="M336.57672,1156.3772L336.57672,1156.3783L336.57672,1156.3785C336.57672,1158.669,335.71106,1160.875,334.15338,1162.5547L334.15338,1162.556L189.16454,1318.8359L182.53471,1303.5803L321.29193,1303.9956L314.6078,1319.2512L175.01959,1168.7869C171.60898,1165.1108,171.8244,1159.3655,175.50082,1155.9547C179.17738,1152.544,184.92276,1152.7594,188.33345,1156.4357L188.33345,1156.4374L327.9215,1306.9004C330.38074,1309.5513,331.03302,1313.4083,329.5819,1316.7198C328.13098,1320.0317,324.85315,1322.1672,321.23767,1322.1566L321.23767,1322.1581L182.48032,1321.7407C178.87448,1321.7299,175.61665,1319.5868,174.17958,1316.2797C172.74237,1312.9722,173.39828,1309.1279,175.85081,1306.4847L175.85081,1306.4861L320.83954,1150.2026L318.41602,1156.3785L318.41602,1156.3772C318.41602,1151.3617,322.4815,1147.2964,327.49652,1147.2964C332.51135,1147.2964,336.57672,1151.3617,336.57672,1156.3772 Z"/> </g> <g style="fill:rgb(255,255,255); fill-opacity:1.0; stroke-linejoin: miter"> <path d="M255.42891,922.8437L255.42903,922.8452L281.45935,934.49713Q265.47424,934.90985,249.48897,935.3212L255.42891,922.8437 Z"/> </g> <g style="fill:rgb(0,0,0); fill-opacity:1.0; stroke-linejoin: miter"> <path d="M805.3691,1030.4724L803.3392,1032.4851Q788.9078,1038.5669,718.8861,1042.2136Q648.3801,1045.8572,552.8353,1045.1687Q461.65033,1044.2059,406.9796,1039.5353Q352.3531,1034.8326,362.67798,1028.46Q377.1092,1022.3782,447.13055,1018.73157Q517.6366,1015.08813,613.18134,1015.77686Q704.3666,1016.73926,759.03735,1021.40955Q776.5544,1022.9192,787.8949,1024.6993L797.4261,1026.5298Q805.2808,1028.419,805.3691,1030.4724"/> </g> <g style="fill:rgb(255,255,255); fill-opacity:1.0; stroke-linejoin: miter"> <path d="M292.06305,913.22C295.95782,913.1749,302.19556,913.1986,312.52844,913.2332C336.6283,913.3134,336.87054,913.3144,336.97308,913.66077C337.07587,914.0071,336.66473,917.9502,336.3659,919.36804C336.27795,919.8003,336.13727,920.4398,336.08417,920.82007C336.0138,921.18317,335.90857,921.6154,335.8388,921.7712C335.75177,921.9264,335.43744,922.80786,335.14014,923.7411C334.21405,926.48865,332.83887,929.04456,330.87482,931.70233C329.8495,933.0656,327.00262,935.9279,326.15314,936.44415C325.8758,936.61633,325.54614,936.8745,325.40735,937.02997C325.28613,937.2016,325.09692,937.3216,325.00983,937.3224C325.0094,937.32263,325.0089,937.32263,325.00836,937.32263C325.00806,937.32263,325.0077,937.32263,325.00745,937.32263C324.91962,937.32367,324.59155,937.5121,324.29785,937.71826C323.98572,937.94214,323.30963,938.3377,322.7896,938.61285C321.45526,939.2659,321.4032,939.33466,321.40027,940.1827C321.39813,940.8571,321.3457,940.9783,320.93,941.13257C320.81274,941.1767,319.867,941.2055,318.48303,941.2216C313.9392,941.27405,304.6745,941.18536,304.529,941.0259C304.45996,940.9735,304.37488,940.57544,304.32446,940.16003C304.22302,939.41565,303.8791,938.8092,303.5157,938.80786C303.20435,938.78955,300.64935,937.1373,299.21722,935.99054C297.8885,934.9481,295.69885,932.7091,295.16522,931.85974C295.0103,931.6171,294.6485,931.14905,294.33838,930.80164C294.04547,930.45483,293.59796,929.744,293.34015,929.2067C293.08252,928.6522,292.78986,928.20166,292.66882,928.201C292.56592,928.18585,291.9748,928.1819,291.27875,928.1897C291.1565,928.19135,291.03088,928.1931,290.90417,928.1952C290.90045,928.19525,290.89685,928.19525,290.89313,928.19525C288.72992,928.2203,285.3004,927.5356,284.9395,926.99896C284.88788,926.92944,284.73248,926.80774,284.59442,926.75543C283.0224,926.0062,281.71246,924.4968,281.07855,922.6434C280.59882,921.2751,280.64142,918.853,281.16504,917.4535C281.70624,916.01953,282.80023,914.8466,284.22113,914.17645C285.6023,913.534,285.8894,913.2909,292.06305,913.22 Z M288.57263,917.6662C288.38574,917.6685,288.15356,917.691,287.85968,917.7182C287.18463,917.785,286.42316,917.95557,286.19763,918.11053C285.33063,918.67847,285.1565,919.0413,285.13495,920.287C285.13055,921.60175,285.35364,922.1216,286.1819,922.79895C286.9756,923.44135,288.35822,923.8789,289.58643,923.8829L290.69373,923.8866L290.6087,923.40186C290.57507,923.1423,290.37,922.3803,290.182,921.72253C289.99384,921.0471,289.73773,920.0426,289.63586,919.4711C289.33813,917.9567,289.29913,917.6578,288.57263,917.6662 Z"/> </g> <g style="fill:rgb(255,255,255); fill-opacity:1.0; stroke-linejoin: miter"> <path d="M313.48566,876.9542C313.55005,876.95776,313.4441,877.2867,313.24536,877.72766C312.47217,879.36584,312.1612,880.6302,312.12457,882.22876C312.09265,883.49725,312.13873,883.8154,312.406,884.61865C312.91663,886.1113,313.438,886.893,315.1244,888.68225C315.98633,889.59656,316.93494,890.6641,317.22107,891.04895C319.29913,893.7961,320.19824,897.312,319.58307,900.2596C319.47406,900.7657,319.3128,901.34717,319.2207,901.5616C319.16382,901.68866,319.12604,901.76685,319.0973,901.76636C319.04633,901.7657,319.02435,901.5178,318.97754,900.85986C318.75403,897.98834,318.03607,895.9344,316.44684,893.5884C316.1364,893.1268,315.0011,891.8279,313.93915,890.6953C311.99078,888.6099,311.41895,887.81464,310.88153,886.41064C310.06293,884.3044,310.21228,881.9588,311.28564,879.7793C311.78247,878.80975,313.12842,877.0658,313.47278,876.9568C313.47687,876.95514,313.48077,876.9542,313.48407,876.9541 Z M306.9674,886.47565C307.04932,886.47675,307.08044,886.842,307.06866,887.6351C307.04474,890.08417,307.812,891.3902,311.47467,895.1C314.3376,897.98584,314.56244,898.23016,315.07086,899.0245C316.24933,900.8316,316.5374,902.7777,315.92487,904.6849C315.7492,905.2268,315.41046,905.94336,315.13794,906.40344L315.13947,906.4049Q315.13367,906.4345,315.12762,906.4663Q314.44067,907.56104,313.89337,908.0885Q313.00903,908.95514,312.38507,909.2262L312.17737,909.31244L312.3106,909.10516L312.31207,909.1065C312.33643,909.039,312.3966,908.93787,312.5003,908.7959C312.85034,908.30615,313.76532,906.5307,313.96478,905.92426C314.05774,905.64655,314.17627,905.35645,314.24066,905.2938C314.33704,905.1732,314.40222,904.97235,314.43884,904.71857L314.4402,904.72Q314.53418,903.6007,314.16815,902.49Q313.8269,901.33527,312.8025,899.6899L312.80408,899.6915C312.4665,899.31146,312.0077,898.8314,311.35272,898.15674C308.35303,895.0785,307.0854,893.29565,306.46844,891.2811C305.99664,889.72577,306.1054,888.3947,306.82904,886.6798C306.88544,886.54504,306.9314,886.475,306.9674,886.47565 Z"/> </g> <g style="fill:rgb(60,70,79); fill-opacity:1.0; stroke-linejoin: miter"> <path d="M317.79688,923.1162L312.89447,923.1162L307.99207,923.1162Q307.99207,928.6759,307.99207,934.2354Q312.89447,934.2356,317.79688,934.2356Q317.79688,928.6759,317.79688,923.1162"/> </g> <g style="fill:rgb(60,70,79); fill-opacity:1.0; stroke-linejoin: miter"> <path d="M312.622,913.2335C312.9278,913.2345,313.22968,913.2355,313.5279,913.2364L313.5265,913.23663L313.55548,923.1162L312.89447,923.1162L312.77203,923.1162L312.89447,923.11646L313.55548,923.1162L313.56177,925.2457C313.5625,925.49603,313.36035,925.6992,313.11017,925.7L313.10876,925.70013C312.85925,925.7,312.65656,925.4981,312.65588,925.2484L312.6496,923.11646L312.6496,923.11646L312.6496,923.11646L312.62067,913.2335 Z"/> </g> <g style="fill:rgb(0,0,0); fill-opacity:1.0; stroke-linejoin: miter"> <path d="M310.67493,928.66504L310.69586,928.97595Q310.84454,929.91565,311.5661,930.47894Q312.29266,931.04193,313.27716,930.9354Q314.21692,930.7868,314.78027,930.0652Q314.96088,929.8319,315.07764,929.5569L315.17584,929.2742Q315.25684,928.9823,315.25763,928.6649Q315.2331,927.6912,314.5866,927.0448Q313.94,926.39825,312.96637,926.37366Q311.99268,926.39825,311.34607,927.0448Q310.69952,927.6912,310.67493,928.66504"/> </g> <g style="fill:rgb(0,0,0); fill-opacity:1.0; stroke-linejoin: miter"> <path d="M437.721,1030.4506L438.57648,1030.6527Q444.6588,1031.2637,474.1701,1031.6296Q503.88556,1031.9956,544.1542,1031.9264Q582.58545,1031.8297,605.627,1031.3605Q628.6499,1030.8883,624.29834,1030.2485Q618.21625,1029.638,588.7047,1029.2719Q558.9893,1028.9061,518.7207,1028.9751Q480.2896,1029.0717,457.24805,1029.5404Q449.86536,1029.6924,445.08563,1029.8712L441.06866,1030.0548Q437.7583,1030.2445,437.721,1030.4506"/> </g> <g style="fill:rgb(254,186,155); fill-opacity:1.0; stroke-linejoin: miter"> <path d="M269.67242,903.4713L269.67242,903.47284L290.8907,914.47327Q289.1306,922.7411,287.37048,931.00824Q270.0313,931.2828,252.69203,931.5575L269.67242,903.4713 Z"/> </g> <g style="fill:rgb(75,118,222); fill-opacity:1.0; stroke-linejoin: miter"> <path d="M249.27852,1054.3601L249.27852,1054.3612L249.27852,1054.3627L247.47975,1026.3568L285.81396,935.6345L255.59706,922.8758C224.26122,981.0239,210.91974,1001.1233,204.52301,1016.7533C199.0696,1030.0776,196.53256,1037.385,196.22243,1038.6151C194.22632,1046.5333,193.21643,1052.4681,193.6167,1056.6772C194.14572,1062.2405,196.97191,1066.9297,202.46709,1070.716L249.27852,1054.3601L249.27852,1054.3612L249.27852,1054.3601 Z"/> </g> <g style="fill:rgb(0,0,0); fill-opacity:1.0; stroke-linejoin: miter"> <path d="M664.18854,1316.5258L664.18854,1316.5258L489.24042,1316.527C484.1997,1316.527,479.56824,1313.7532,477.1897,1309.3082C474.81128,1304.8641,475.07178,1299.4718,477.86786,1295.2781L477.86786,1295.2781L652.81604,1032.8551L664.18854,1054.1039L489.24042,1054.1053L500.6125,1032.8556L675.561,1295.2766C678.3568,1299.4705,678.6177,1304.8633,676.23914,1309.3073C673.86066,1313.7511,669.22925,1316.5258,664.18854,1316.5258L664.18854,1316.5258 M664.18854,1289.1902L652.81604,1310.4397L477.86786,1048.0187C475.07178,1043.8247,474.81128,1038.4323,477.1897,1033.988C479.56793,1029.544,484.1994,1026.7697,489.24005,1026.7697L489.24005,1026.7697L664.18854,1026.7683C669.229,1026.7683,673.8602,1029.5427,676.2389,1033.9868C678.6173,1038.4312,678.3568,1043.8236,675.561,1048.0173L675.561,1048.0173L500.6125,1310.4407L489.24005,1289.1914L664.18854,1289.1902 Z"/> </g> <g style="fill:rgb(0,0,0); fill-opacity:1.0; stroke-linejoin: miter"> <path d="M805.36896,1038.4094L803.3392,1040.422Q796.92523,1043.125,779.53046,1045.3472Q755.3848,1048.0194,747.2616,1048.4095Q734.4465,1049.3402,718.8861,1050.1505Q711.82495,1050.6892,669.10016,1052.0983Q651.5774,1052.5873,632.8182,1052.8619Q595.2998,1053.4115,552.8353,1053.1056Q512.30865,1052.6777,478.99475,1051.5175Q438.93,1049.9067,433.08087,1049.3649Q419.1286,1048.5101,406.9796,1047.4722Q358.4228,1043.2919,361.18536,1037.7924Q363.3119,1034.9482,378.4754,1032.6127Q380.42206,1031.952,406.62634,1029.37Q418.06873,1028.3792,432.25653,1027.5087Q438.28125,1026.9507,479.703,1025.2628Q496.60748,1024.6675,514.7485,1024.2855Q551.03046,1023.522,592.2584,1023.61414Q634.90155,1023.756,669.9143,1024.7672Q687.4729,1025.256,703.22833,1025.9275Q741.039,1027.7668,746.4374,1028.3545Q772.89185,1030.2704,787.8949,1032.6361Q804.43494,1035.1057,805.36896,1038.4094"/> </g> <g style="fill:rgb(0,0,0); fill-opacity:1.0; stroke-linejoin: miter"> <path d="M803.57007,1048.0079L801.5405,1050.0204Q792.4132,1053.2678,777.7318,1054.9454Q755.0697,1057.4065,749.8644,1057.7217Q734.5875,1058.8221,715.078,1059.8793Q649.0312,1063.1863,560.412,1062.7615Q467.44562,1061.98,413.48053,1057.7422Q357.87915,1053.622,359.3866,1047.3906Q362.48315,1044.1683,378.73975,1041.8225Q402.84338,1038.6237,434.88342,1036.8035Q505.19568,1032.9349,590.4595,1033.2125Q678.4412,1033.5317,740.63885,1037.6298Q775.8873,1040.2291,789.57904,1042.7937Q802.7401,1045.0712,803.57007,1048.0079"/> </g> <g style="fill:rgb(0,0,0); fill-opacity:1.0; stroke-linejoin: miter"> <path d="M778.56836,1298.65L778.56836,1298.6514L778.56836,1298.6531L778.56836,1298.6547L775.67303,1298.6842C766.9655,1298.7808,771.0429,1295.259,767.1315,1295.5857C761.1479,1296.0853,735.8939,1298.13,733.8372,1298.3416C722.65466,1299.4939,724.4141,1310.8069,724.8054,1314.92L811.476,1316.0444L806.26514,1297.6245L778.56836,1298.65L778.56836,1298.6514L778.56836,1298.65L778.56836,1298.6514 Z"/> </g> <g style="fill:rgb(0,0,0); fill-opacity:1.0; stroke-linejoin: miter"> <path d="M799.9231,1130.8701L799.9231,1130.8717L799.9231,1130.8724C799.9231,1133.1621,800.78864,1135.368,802.34674,1137.0476L802.34674,1137.0491L947.33545,1293.3292L953.9653,1278.0736L815.20795,1278.4891L821.8921,1293.7449L961.48004,1143.2808C964.89075,1139.6038,964.67554,1133.8585,960.9991,1130.4478C957.3226,1127.0375,951.577,1127.2523,948.16626,1130.9294L948.16626,1130.9305L808.5781,1281.3939C806.11896,1284.0446,805.4669,1287.9015,806.918,1291.2137C808.3691,1294.5255,811.6466,1296.661,815.26215,1296.6498L815.26215,1296.6512L954.0196,1296.2341C957.62555,1296.223,960.8832,1294.08,962.3205,1290.7731C963.7577,1287.4657,963.1016,1283.6217,960.6494,1280.9777L960.6494,1280.9796L815.6603,1124.6962L818.08386,1130.872L818.08386,1130.8704C818.084,1125.8549,814.01843,1121.7899,809.0037,1121.7899C803.9885,1121.7899,799.9231,1125.8546,799.9231,1130.8701 Z"/> </g> <g style="fill:rgb(40,70,106); fill-opacity:1.0; stroke-linejoin: miter"> <path d="M924.1966,1049.1305L924.1966,1049.1323L924.1966,1049.1326L925.5312,1058.241C928.6037,1076.8807,930.3345,1093.6573,929.29785,1108.4932C928.2158,1123.9791,923.6342,1133.4921,916.976,1137.1534C908.2951,1146.6743,877.8774,1144.9725,825.72235,1132.0477L808.57056,1312.234L761.8146,1303.9779C759.6744,1237.6879,759.271,1192.1842,760.6693,1167.4688C762.4565,1135.8795,766.869,1116.4493,773.02673,1108.5187C778.8497,1101.0187,785.8455,1096.4238,794.6219,1094.3126C803.9989,1092.0557,835.09595,1090.9952,865.03815,1090.6802L886.49963,1035.6384L924.1966,1049.1305L924.1966,1049.1326L924.1966,1049.1305 Z"/> </g> <g style="fill:rgb(27,2,2); fill-opacity:1.0; stroke-linejoin: miter"> <path d="M1009.4281,967.7585L997.4976,964.6136L985.56647,961.46954Q962.44824,1049.167,939.32983,1136.8639Q951.26025,1140.01,963.19104,1143.1555Q986.3097,1055.457,1009.4281,967.7585 Z"/> </g> <g style="fill:rgb(27,2,2); fill-opacity:1.0; stroke-linejoin: miter"> <path d="M967.67725,1127.3799L883.9581,1127.7191L800.2391,1128.058Q800.3189,1147.8267,800.3992,1167.5947Q884.11847,1167.2566,967.8373,1166.9182Q967.75745,1147.1493,967.67725,1127.3799 Z"/> </g> <g style="fill:rgb(201,73,123); fill-opacity:0.99607843; stroke-linejoin: miter"> <path d="M732.91705,1181.3707L732.91705,1181.371L732.91754,1181.3702L732.91705,1181.3707 Z"/> </g> <g style="fill:rgb(83,150,190); fill-opacity:0.99607843; stroke-linejoin: miter"> <path d="M975.415,864.9042L975.4147,864.90515L975.4144,864.90515L975.4147,864.9042L975.415,864.90515L975.4147,864.9042L975.4144,864.90515Q975.4147,864.9042,975.415,864.9042 Z"/> </g> <g style="fill:rgb(255,200,166); fill-opacity:0.99607843; stroke-linejoin: miter"> <path d="M892.15735,939.1475L892.1565,939.1483L892.15686,939.1475L892.15735,939.1493 Z"/> </g> <g style="fill:rgb(0,0,0); fill-opacity:0.99607843; stroke-linejoin: miter"> <path d="M916.9238,967.5388L916.9233,967.5401L916.9227,967.5388L916.9238,967.5406 Z"/> </g> <g style="fill:rgb(125,139,150); fill-opacity:0.99607843; stroke-linejoin: miter"> <path d="M948.35956,1018.5491L948.35956,1018.5503L948.35956,1018.55054L948.35956,1018.5491 Z"/> </g> <g style="fill:rgb(0,0,0); fill-opacity:1.0; stroke-linejoin: miter"> <path d="M976.83026,926.0527L976.9077,925.92004Q984.0075,910.579,985.51697,908.3034Q987.02875,905.64606,988.52264,903.6747Q994.2156,896.7691,995.80255,894.13165Q999.1784,888.65436,1000.65314,885.15454Q1003.85803,877.55273,1004.3484,874.05444Q1004.8015,871.792,1004.9059,869.61633L1004.902,867.48425Q1004.7888,865.3904,1004.2676,863.475Q1003.19934,859.63904,1000.8175,856.5766Q999.2657,854.03516,993.506,850.27435Q989.46796,847.9328,984.12573,846.68396Q978.0963,845.2644,967.82935,844.6375Q964.43976,843.77155,962.92737,843.1018Q958.7508,842.17444,958.5582,835.0695Q953.3857,839.3793,952.0487,842.1492Q949.3975,846.3224,949.32623,858.7669L956.37134,894.1247L976.83026,926.0527 Z"/> </g> <g style="fill:rgb(255,186,155); fill-opacity:0.99607843; stroke-linejoin: miter"> <path d="M976.992,933.4847L976.9912,933.4851L979.3955,921.23694L981.1725,916.8904Q976.37616,914.95435,974.42224,911.848Q972.7154,908.8633,972.8844,904.36334Q973.21,900.5422,973.88336,898.9966Q974.24475,897.9671,974.70337,896.9902Q977.8688,890.8641,977.80927,890.44867Q978.4973,888.83417,978.238,886.1753Q976.66797,880.24634,973.1102,880.5505Q972.1722,880.48175,970.2485,881.8303Q969.52893,882.17474,964.9205,886.98596Q963.73175,888.09,963.4907,887.55383Q963.3068,886.4476,963.5868,885.2617Q965.42444,876.6045,965.88666,873.4498Q966.6153,867.64716,966.4546,866.6374Q966.732,860.7445,962.3484,855.4721Q954.9698,848.6038,949.3272,850.70496Q941.971,859.5597,940.6481,862.74927Q938.9043,866.1589,940.1274,870.5029Q928.88995,878.7812,928.045,881.29364Q926.349,884.09546,932.5036,886.4432Q929.84595,890.55334,929.7909,891.88666Q929.50854,893.34875,931.49066,894.8331Q929.77747,894.52783,929.44006,896.64764Q929.225,898.5356,929.7015,903.27246Q927.5715,907.8379,927.52014,910.24164Q927.68945,912.56244,928.5771,913.24475Q929.67285,914.8704,935.8743,917.26465L943.801,917.41895L946.25214,924.16766L976.992,933.4847 Z"/> </g> <g style="fill:rgb(0,0,0); fill-opacity:0.99607843; stroke-linejoin: miter"> <path d="M923.8414,910.87286L923.8409,910.872L923.8409,910.87286L923.8409,910.872 Z"/> </g> <g style="fill:rgb(157,32,121); fill-opacity:1.0; stroke-linejoin: miter"> <path d="M900.8672,1097.88L900.8668,1097.881L901.45074,1101.4305C904.46326,1120.5798,908.302,1131.8145,912.38696,1135.7661C917.12756,1140.3535,923.968,1143.255,933.51984,1143.8666C934.7811,1141.8707,936.0242,1139.8584,937.2838,1137.8494C944.1898,1126.8354,949.01697,1116.6238,952.00916,1107.2792C952.57025,1105.5281,953.937,1101.5146,955.1816,1095.006C959.6764,1071.4952,961.8996,1059.3733,962.09674,1058.6138C962.65936,1056.4491,963.6018,1052.0736,965.4342,1045.608C967.789,1037.2992,973.9741,1022.131,983.0741,999.7368C986.0317,992.45776,987.069,987.97473,987.4325,986.7041C988.5825,982.68353,989.3811,977.5453,989.8561,971.19293C989.9692,969.6789,989.86804,965.7327,988.8052,959.35364C987.7529,953.0379,984.70184,944.88416,979.97205,934.83704L979.773,922.1272L942.93756,919.727L940.26605,929.89154C921.27997,944.91724,909.5575,957.20374,904.2284,966.2556C898.3772,976.1946,892.91235,986.5918,888.6892,997.9679C888.2839,998.114,888.0803,1015.687,875.7876,1051.9589C871.92786,1063.3489,862.8887,1071.872,861.0064,1076.2784C856.85754,1085.9913,853.0739,1092.6375,849.6092,1096.198C856.47876,1102.3318,862.87415,1105.0619,868.7887,1105.2551C874.27924,1105.4352,884.9549,1103.2664,900.8672,1097.88L900.8668,1097.881 Z"/> </g> <g style="fill:rgb(0,0,0); fill-opacity:0.99607843; stroke-linejoin: miter"> <path d="M951.6281,871.2228L951.3335,870.95264Q949.4217,869.13055,948.0137,868.5596Q947.6997,868.43695,947.3808,868.35815Q947.22394,868.29706,946.4137,868.20355Q945.60126,868.1292,944.10724,868.2475Q946.3127,868.8551,947.5809,869.3694Q948.8198,869.847,951.6281,871.2228 Z"/> </g> <g style="fill:rgb(0,0,0); fill-opacity:0.99607843; stroke-linejoin: miter"> <path d="M948.5483,876.9721L948.549,876.97363L948.5489,876.97437L948.5483,876.9721 Z"/> </g> <g style="fill:rgb(255,255,255); fill-opacity:0.99607843; stroke-linejoin: miter"> <path d="M949.37445,873.41437L949.37427,873.4156L945.78284,870.3833Q945.0947,870.99835,944.9122,871.4768Q944.7006,871.9237,944.6013,873.1598L949.37445,873.41437 Z"/> </g> <g style="fill:rgb(0,0,0); fill-opacity:0.99607843; stroke-linejoin: miter"> <path d="M945.8173,870.36365L946.42346,872.13135L944.7185,873.1241Q944.64655,872.4405,944.6632,872.0958Q944.68866,871.7544,944.71075,871.6973Q944.7383,871.5709,944.7839,871.4549Q944.82983,871.34064,944.8946,871.2368Q944.9174,871.1793,945.1213,870.9454Q945.3327,870.71564,945.8173,870.36365 Z"/> </g> <g style="fill:rgb(0,0,0); fill-opacity:0.99607843; stroke-linejoin: miter"> <path d="M896.9566,972.0167L896.956,972.0182L896.95575,972.0167L896.9566,972.0187 Z"/> </g> <g style="fill:rgb(157,32,121); fill-opacity:1.0; stroke-linejoin: miter"> <path d="M940.8143,929.02826L940.81415,929.0289L940.06146,936.52Q935.50287,937.04974,930.9443,937.5799L940.8143,929.02826 Z"/> </g> <g style="fill:rgb(157,32,121); fill-opacity:1.0; stroke-linejoin: miter"> <path d="M934.8948,936.24347L934.8945,936.24396L932.31177,939.2872L927.1815,940.34094Q929.8668,938.2696,932.5522,936.19745L934.8948,936.24347 Z"/> </g> <g style="fill:rgb(0,0,0); fill-opacity:0.99607843; stroke-linejoin: miter"> <path d="M725.094,1122.1172L725.094,1122.1174L725.09424,1122.1172L725.094,1122.1182 Z"/> </g> <g style="fill:rgb(0,0,0); fill-opacity:0.99607843; stroke-linejoin: miter"> <path d="M897.01184,906.9761L897.01184,906.97687L897.0112,906.9761L897.01184,906.97687L897.01184,906.9761L897.01184,906.97687L897.0112,906.9761Q897.01184,906.9761,897.01184,906.9761 Z"/> </g> <g style="fill:rgb(0,0,0); fill-opacity:1.0; stroke-linejoin: miter"> <path d="M800.82214,1159.6504L800.82214,1159.6517L800.82214,1159.652C800.82214,1161.942,801.6877,1164.1482,803.2454,1165.8281L803.2454,1165.8293L948.23425,1322.1094L954.8641,1306.8534L816.10675,1307.2687L822.791,1322.5244L962.37933,1172.06C965.7898,1168.3838,965.57446,1162.6388,961.898,1159.2279C958.2215,1155.8171,952.4761,1156.033,949.06537,1159.7089L949.06537,1159.7106L809.47736,1310.1736C807.01794,1312.8248,806.36584,1316.6815,807.81696,1319.9935C809.2679,1323.3053,812.54565,1325.4406,816.1611,1325.4299L816.1611,1325.4316L954.9186,1325.014C958.52435,1325.0032,961.7822,1322.8602,963.2193,1319.5532C964.6563,1316.2455,964.00055,1312.4012,961.5481,1309.758L961.5481,1309.7593L816.5593,1153.4761L818.9828,1159.652L818.9828,1159.6504C818.9828,1154.635,814.91736,1150.5697,809.9025,1150.5697C804.88745,1150.5697,800.82214,1154.635,800.82214,1159.6504 Z"/> </g> <g style="fill:rgb(255,255,255); fill-opacity:1.0; stroke-linejoin: miter"> <path d="M881.9697,926.1168L881.9696,926.1184L855.93933,937.7704Q871.92444,938.18304,887.9097,938.5944L881.9697,926.1168 Z"/> </g> <g style="fill:rgb(255,255,255); fill-opacity:1.0; stroke-linejoin: miter"> <path d="M845.3357,916.49316C841.441,916.4481,835.2033,916.4718,824.8703,916.5063C800.77026,916.5865,800.52814,916.58746,800.42554,916.93384C800.323,917.2802,800.73413,921.2233,801.03284,922.6411C801.12085,923.0734,801.26135,923.7129,801.3145,924.09314C801.385,924.45624,801.49005,924.88855,801.55994,925.04425C801.6469,925.19946,801.9613,926.08093,802.2587,927.01416C803.18475,929.7618,804.55994,932.31775,806.5239,934.9756C807.5493,936.3387,810.3961,939.2011,811.2458,939.71735C811.52313,939.8894,811.8527,940.1477,811.99146,940.30316C812.11273,940.47485,812.30194,940.5948,812.38885,940.5956C812.38934,940.5958,812.38995,940.5958,812.3903,940.5958C812.3907,940.5958,812.39105,940.5958,812.3915,940.5958C812.47925,940.5969,812.8073,940.78534,813.10095,940.9915C813.4131,941.2152,814.0892,941.61096,814.6092,941.8861C815.94354,942.5391,815.9956,942.60785,815.99854,943.4559C816.00073,944.1304,816.05304,944.25146,816.46875,944.4058C816.586,944.44977,817.53186,944.47864,818.9157,944.4948C823.45953,944.5471,832.7242,944.45844,832.8697,944.29895C832.9387,944.24664,833.0239,943.8485,833.0742,943.4331C833.1756,942.6888,833.5196,942.0824,833.88306,942.08105C834.1944,942.0626,836.7493,940.4104,838.18164,939.26373C839.51013,938.22144,841.7,935.98236,842.2335,935.1328C842.3885,934.8902,842.7501,934.4221,843.06036,934.0748C843.3532,933.7279,843.80084,933.0171,844.0586,932.47986C844.3162,931.9253,844.6088,931.47473,844.72986,931.4741C844.8328,931.459,845.42395,931.45496,846.1199,931.46277C846.2423,931.4644,846.3678,931.46625,846.4947,931.46826C846.4982,931.4684,846.5019,931.4684,846.50555,931.4684C848.66876,931.49335,852.09827,930.8087,852.4591,930.2721C852.51086,930.2026,852.6662,930.0808,852.8042,930.0285C854.37646,929.2793,855.68616,927.7699,856.32025,925.91656C856.7999,924.54816,856.75726,922.12616,856.2338,920.7267C855.69257,919.2926,854.5985,918.1197,853.1776,917.4497C851.7964,916.8071,851.5094,916.5642,845.3357,916.49316 Z M848.8262,920.93933C849.013,920.9417,849.2452,920.96405,849.5392,920.99133C850.21405,921.05804,850.9756,921.22864,851.2011,921.3836C852.06824,921.95166,852.2422,922.3144,852.26385,923.56006C852.2683,924.8749,852.0451,925.39465,851.2169,926.072C850.42316,926.7146,849.0406,927.152,847.8122,927.1561L846.705,927.15967L846.79,926.67505C846.8237,926.41547,847.0288,925.6535,847.21674,924.9956C847.40497,924.3202,847.6611,923.3158,847.7629,922.7443C848.06055,921.2299,848.09955,920.9309,848.8262,920.93933 Z"/> </g> <g style="fill:rgb(255,255,255); fill-opacity:1.0; stroke-linejoin: miter"> <path d="M823.9131,880.2275C823.84875,880.231,823.95465,880.55975,824.1534,881.00085C824.92664,882.6389,825.2376,883.90344,825.27435,885.5019C825.3061,886.7705,825.26,887.0885,824.9927,887.89185C824.4823,889.3845,823.9609,890.16626,822.2745,891.95557C821.41254,892.8699,820.4639,893.9373,820.1777,894.32214C818.0996,897.06934,817.20056,900.58527,817.81573,903.5328C817.92474,904.0389,818.08606,904.62036,818.1781,904.8348C818.235,904.9619,818.27264,905.04004,818.30145,905.03955C818.35236,905.03894,818.3743,904.791,818.4212,904.1332C818.64465,901.26166,819.3628,899.2076,820.952,896.8616C821.26245,896.4001,822.39777,895.1012,823.45966,893.9685C825.408,891.8831,825.97986,891.0877,826.5172,889.68384C827.33575,887.5775,827.18646,885.23206,826.11316,883.0525C825.6163,882.0828,824.2704,880.339,823.926,880.23004C823.9219,880.22833,823.9179,880.2275,823.9147,880.2273 Z M830.43134,889.7487C830.34955,889.75006,830.31836,890.1152,830.33014,890.9083C830.35406,893.3573,829.5868,894.6633,825.92413,898.3731C823.0611,901.25903,822.83636,901.50323,822.3279,902.2977C821.1495,904.1048,820.8613,906.0509,821.4739,907.9581C821.6496,908.5,821.98846,909.21655,822.2609,909.6767L822.25946,909.67816Q822.265,909.7077,822.2713,909.7395Q822.9582,910.8342,823.5055,911.3617Q824.38983,912.22833,825.01373,912.49945L825.2214,912.5856L825.0882,912.37823L825.08673,912.3797C825.06226,912.3122,825.00226,912.21094,824.89856,912.06915C824.5486,911.57935,823.6335,909.8039,823.4341,909.1975C823.34106,908.9198,823.22266,908.6295,823.1581,908.5671C823.06177,908.4463,822.9965,908.2454,822.96,907.9918L822.95856,907.99316Q822.8647,906.87396,823.2308,905.7631Q823.5719,904.60846,824.5964,902.96313L824.5948,902.9646C824.93243,902.58466,825.3909,902.1045,826.046,901.4298C829.04565,898.35156,830.31335,896.56885,830.93024,894.5543C831.40204,892.999,831.29315,891.6678,830.56964,889.95294C830.5133,889.8181,830.46747,889.7482,830.43134,889.7487 Z"/> </g> <g style="fill:rgb(83,93,102); fill-opacity:1.0; stroke-linejoin: miter"> <path d="M819.6018,926.3894L824.50433,926.3894L829.4066,926.3894Q829.4066,931.949,829.40674,937.50854Q824.50446,937.5087,819.6019,937.5087Q819.6019,931.9491,819.6018,926.3894"/> </g> <g style="fill:rgb(83,93,102); fill-opacity:1.0; stroke-linejoin: miter"> <path d="M824.77686,916.50684C824.471,916.50757,824.1691,916.5086,823.8709,916.5096L823.8722,916.5098L823.8433,926.3894L824.50433,926.3894L824.6267,926.3894L824.50433,926.3897L823.8433,926.3894L823.83716,928.5189C823.83624,928.76917,824.0386,928.9724,824.2886,928.9733L824.29004,928.9734C824.5397,928.9733,824.74225,928.7713,824.7429,928.5216L824.7491,926.3897L824.7491,926.3897L824.7491,926.3897L824.77814,916.50684 Z"/> </g> <g style="fill:rgb(0,0,0); fill-opacity:1.0; stroke-linejoin: miter"> <path d="M826.7239,931.9382L826.7028,932.249Q826.5541,933.1887,825.83264,933.7521Q825.10614,934.315,824.1216,934.2087Q823.18195,934.06,822.6186,933.3385Q822.4379,933.1051,822.32117,932.83014L822.22296,932.5474Q822.1421,932.25555,822.14105,931.9382Q822.1658,930.9645,822.81213,930.318Q823.45874,929.6715,824.4324,929.64685Q825.4061,929.6714,826.0526,930.3179Q826.69916,930.9643,826.7239,931.9382"/> </g> <g style="fill:rgb(254,186,155); fill-opacity:1.0; stroke-linejoin: miter"> <path d="M867.7263,906.7444L867.7263,906.7459L846.50806,917.74646Q848.268,926.01416,850.0282,934.2814Q867.36743,934.55585,884.7066,934.8306L867.7263,906.7444 Z"/> </g> <g style="fill:rgb(157,32,121); fill-opacity:1.0; stroke-linejoin: miter"> <path d="M888.1203,1057.6332L888.1203,1057.6342L888.1203,1057.6359L889.91895,1029.6298L851.5847,938.9076L881.8017,926.1489C913.13745,984.297,926.4789,1004.39624,932.8756,1020.02625C938.3291,1033.3506,940.866,1040.6581,941.1762,1041.8882C943.1723,1049.8064,944.18225,1055.7412,943.7819,1059.9503C943.2529,1065.5139,940.4267,1070.2029,934.9315,1073.989L888.1203,1057.6332L888.1203,1057.6342L888.1203,1057.6332 Z"/> </g> <g style="fill:rgb(0,0,0); fill-opacity:1.0; stroke-linejoin: miter"> <path d="M932.312,886.514L932.312,886.5148L946.49524,898.20605L940.0805,902.4635Q936.85175,896.48755,934.99585,894.97534Q933.18304,893.1996,929.0747,892.60034L932.312,886.514"/> </g> <g style="fill:rgb(0,0,0); fill-opacity:1.0; stroke-linejoin: miter"> <path d="M963.688,883.6115L963.688,883.6125Q954.675,895.0907,950.7092,897.10815Q947.4572,899.29126,942.23334,896.22644L929.66077,902.5705Q926.2996,906.1855,926.11804,909.9958Q926.47546,917.34644,932.8928,922.9304Q935.1635,924.6235,937.67316,924.35913Q939.7524,924.1804,942.4265,922.33325Q946.8243,919.3493,953.5611,909.8594Q961.3217,898.9692,976.12415,874.18134L963.688,883.6115"/> </g> <g style="fill:rgb(40,70,106); fill-opacity:1.0; stroke-linejoin: miter"> <path d="M954.23126,896.34814L954.23126,896.34814L954.23114,896.3482L954.23126,896.34814"/> </g> <g style="fill:rgb(255,255,255); fill-opacity:1.0; stroke-linejoin: miter"> <path d="M559.433,957.4112L518.19696,957.4115Q507.83264,965.46313,505.7417,979.2776Q503.82477,991.50977,511.76257,1003.34924Q513.24866,1005.801,518.9044,1010.5615L558.67944,1010.5615Q565.3429,1005.1074,568.02765,999.8904Q572.3336,991.3439,572.2053,984.92676Q572.57776,968.86957,559.433,957.4112 Z"/> </g> <g style="fill:rgb(255,255,255); fill-opacity:1.0; stroke-linejoin: miter"> <path d="M538.88654,944.1114L536.14026,944.2814L534.12775,944.52985Q532.1403,944.84094,530.25366,945.4031Q526.4805,946.52704,523.11066,948.65424Q517.60126,952.17426,513.9306,957.82587L563.89435,957.8256Q559.9813,951.74585,552.76685,947.5399Q549.2577,945.6924,545.2266,944.8368L543.1785,944.47107Q541.0977,944.1671,538.88654,944.1114 Z"/> </g> <g style="fill:rgb(255,255,255); fill-opacity:1.0; stroke-linejoin: miter"> <path d="M542.16925,942.3101L542.13245,942.85675Q541.8711,944.5087,540.6025,945.4992Q539.32513,946.48883,537.59424,946.3018Q535.94214,946.04034,534.95166,944.7718Q534.63434,944.3617,534.42883,943.8783L534.2562,943.38104Q534.11383,942.868,534.1123,942.3101Q534.1555,940.59845,535.29224,939.4616Q536.42896,938.32495,538.14087,938.28174Q539.85254,938.3249,540.9893,939.46155Q542.12604,940.5983,542.16925,942.3101"/> </g> <g style="fill:rgb(0,0,0); fill-opacity:1.0; stroke-linejoin: miter"> <path d="M522.0593,1010.07666L539.27826,1010.07654L556.49725,1010.07666Q556.49725,1013.7943,556.49713,1017.5121Q539.2782,1017.5121,522.0593,1017.5122Q522.0593,1013.79443,522.0593,1010.07666"/> </g> <g style="fill:rgb(0,0,0); fill-opacity:1.0; stroke-linejoin: miter"> <path d="M559.00604,1009.41455L559.00604,1009.41455L562.6667,1017.47107Q559.03937,1017.4917,555.41205,1017.5121Q555.3018,1013.9155,555.1915,1010.31885L559.00604,1009.41455"/> </g> <g style="fill:rgb(0,0,0); fill-opacity:1.0; stroke-linejoin: miter"> <path d="M518.9857,1009.41455L515.325,1017.47107L522.57965,1017.5121L522.80023,1010.31885L518.9857,1009.41455"/> </g> <g style="fill:rgb(255,255,255); fill-opacity:1.0; stroke-linejoin: miter"> <path d="M562.7766,980.25586L564.0865,979.0372Q572.63525,970.8986,578.1771,967.6295Q583.13007,964.55505,592.2964,963.0528L597.3363,973.7709Q589.3596,975.08887,584.0519,979.5568Q578.9797,983.3451,566.19653,998.53955L562.7766,980.25586"/> </g> <g style="fill:rgb(255,255,255); fill-opacity:1.0; stroke-linejoin: miter"> <path d="M511.41998,965.7065C501.45972,965.70654,492.91522,973.02893,492.91522,982.61176C492.91522,992.1946,501.45978,999.5171,511.42004,999.51697C511.66028,999.51697,511.8996,999.5127,512.13806,999.5043L512.1383,999.5044Q512.1383,996.9557,512.1383,994.4075L512.13806,994.4075C511.90063,994.4182,511.66132,994.4237,511.42004,994.4237C503.75336,994.4237,498.00842,988.88904,498.00842,982.61176C498.00842,976.3345,503.7533,970.79974,511.41998,970.79974C511.66144,970.79974,511.90088,970.8052,512.1383,970.816L512.1383,970.81604Q512.1383,968.26746,512.1383,965.7192L512.13855,965.71924C511.89996,965.7107,511.6604,965.7065,511.41998,965.7065 Z"/> </g> <g style="fill:rgb(255,255,255); fill-opacity:1.0; stroke-linejoin: miter"> <path d="M507.38788,1009.0061C502.02338,1009.0868,498.79773,1009.1422,498.73938,1009.15454C498.62653,1009.1843,498.0896,1009.2772,497.52496,1009.371C495.06805,1009.8324,494.22803,1012.3373,495.89752,1014.15283C496.73248,1015.0747,496.76093,1015.07434,499.70642,1015.1151L502.70935,1015.18335L503.43304,1016.2483C505.4599,1019.21985,507.2636,1020.52356,509.78992,1020.9387C510.8399,1021.0928,522.3083,1021.06287,540.05975,1020.8253C546.8519,1020.74194,552.0868,1020.6808,556.14557,1020.6201C570.3916,1020.4061,570.1447,1020.19543,571.89044,1019.0449C572.9559,1018.3208,574.4618,1016.7694,575.6265,1015.1378L576.3752,1014.079L579.31793,1013.92163C581.94965,1013.7975,582.3447,1013.70605,582.9586,1013.1024C584.438,1011.66455,584.0636,1009.34814,582.21,1008.4977C581.29767,1008.0869,578.01276,1008.0796,540.07434,1008.563C526.8394,1008.72864,514.97455,1008.8926,507.38788,1009.0061 Z"/> </g> <g style="fill:rgb(255,255,255); fill-opacity:1.0; stroke-linejoin: miter"> <path d="M591.7769,942.13086C591.8602,942.13196,591.8919,942.5032,591.8799,943.3091C591.8556,945.7978,592.63525,947.125,596.3574,950.89514C599.2668,953.8276,599.49524,954.07587,600.0119,954.88336C601.20953,956.7197,601.50226,958.6973,600.8799,960.6356C600.7013,961.1863,600.3571,961.91455,600.08014,962.38214L600.08167,962.38367Q600.0758,962.41376,600.06964,962.4459Q599.37146,963.55835,598.8153,964.09424Q597.9166,964.9751,597.2824,965.25055L597.07135,965.33826L597.2068,965.12756L597.2083,965.1291C597.2331,965.06036,597.2941,964.95746,597.3997,964.81323C597.7553,964.31555,598.6853,962.5111,598.88794,961.895C598.9824,961.61273,599.1028,961.31793,599.1682,961.2543C599.2662,961.1316,599.3325,960.9276,599.3696,960.6697L599.37115,960.6712Q599.4665,959.53375,599.0945,958.40497Q598.74786,957.23145,597.7067,955.5595L597.7084,955.5611C597.36523,955.1749,596.89905,954.6871,596.2335,954.00134C593.1852,950.8733,591.8969,949.0614,591.2699,947.0142C590.7905,945.43353,590.90106,944.08093,591.6364,942.33826C591.6938,942.20123,591.74036,942.1302,591.7769,942.13086 Z"/> </g> <g style="fill:rgb(255,255,255); fill-opacity:1.0; stroke-linejoin: miter"> <path d="M596.2886,936.24884C596.3718,936.25,596.4036,936.6211,596.39154,937.427C596.3671,939.9157,597.147,941.243,600.869,945.013C603.77856,947.94556,604.00696,948.194,604.5237,949.0012C605.7212,950.8377,606.014,952.81537,605.39154,954.75354C605.213,955.30426,604.86884,956.0324,604.59186,956.5L604.5934,956.5016Q604.5875,956.5317,604.58136,956.5639Q603.8832,957.6764,603.32697,958.2122Q602.4282,959.09314,601.7941,959.36847L601.58307,959.45624L601.71857,959.2455L601.7201,959.24695C601.7448,959.17834,601.80585,959.0755,601.9114,958.9312C602.26697,958.4335,603.1969,956.6291,603.39954,956.01294C603.4941,955.7308,603.61444,955.4359,603.6798,955.3722C603.77783,955.2497,603.84424,955.0457,603.8813,954.78784L603.8828,954.7893Q603.9782,953.65186,603.60614,952.5229Q603.25946,951.3495,602.2183,949.6774L602.22,949.679C601.8769,949.29285,601.41064,948.80493,600.7451,948.11926C597.6968,944.9912,596.40857,943.1793,595.7816,941.13226C595.3021,939.5516,595.4128,938.199,596.1481,936.4562C596.20544,936.31915,596.252,936.24817,596.2886,936.24884 Z"/> </g> </g> </svg>